<svg id="visual" viewBox="0 0 900 900" width="900" height="900" xmlns="http://www.w3.org/2000/svg" xmlns:xlink="http://www.w3.org/1999/xlink" version="1.1"><g transform="translate(407.4136275352185 453.693984460367)"><path d="M182.6 -268.2C218.3 -225.4 216.1 -147.5 250.7 -73.7C285.3 0 356.6 69.5 356.3 129.8C356 190.1 284.1 241.1 212.8 271.2C141.5 301.4 70.7 310.7 10.2 296.7C-50.4 282.6 -100.7 245.3 -148.1 207.3C-195.5 169.4 -239.9 130.9 -259.3 81.8C-278.7 32.7 -273 -27.1 -251.2 -77.8C-229.5 -128.5 -191.7 -170.3 -147.2 -210.1C-102.7 -250 -51.3 -288 11.1 -303.2C73.5 -318.5 146.9 -310.9 182.6 -268.2" fill="#F7770F"></path></g></svg>